<?xml version="1.0" encoding="UTF-8"?>
<!DOCTYPE svg PUBLIC "-//W3C//DTD SVG 1.1//EN" "http://www.w3.org/Graphics/SVG/1.1/DTD/svg11.dtd">
<!-- Creator: CorelDRAW (OEM Version) -->
<svg xmlns="http://www.w3.org/2000/svg" xml:space="preserve" width="95.2057mm" height="56.0034mm" version="1.1" style="shape-rendering:geometricPrecision; text-rendering:geometricPrecision; image-rendering:optimizeQuality; fill-rule:evenodd; clip-rule:evenodd"
viewBox="0 0 9519.76 5599.86"
 xmlns:xlink="http://www.w3.org/1999/xlink"
 xmlns:xodm="http://www.corel.com/coreldraw/odm/2003">
 <defs>
  <style type="text/css">
   <![CDATA[
    .str0 {stroke:#009B4C;stroke-width:7.62;stroke-miterlimit:22.9256}
    .fil2 {fill:#FEFEFE}
    .fil1 {fill:#FEFEFE;fill-rule:nonzero}
    .fil0 {fill:url(#id0)}
   ]]>
  </style>
  <linearGradient id="id0" gradientUnits="userSpaceOnUse" x1="4489.03" y1="473.88" x2="4489.07" y2="4718.78">
   <stop offset="0" style="stop-opacity:1; stop-color:#65B73B"/>
   <stop offset="1" style="stop-opacity:1; stop-color:#009B4C"/>
  </linearGradient>
 </defs>
 <g id="Layer_x0020_1">
  <metadata id="CorelCorpID_0Corel-Layer"/>
  <g id="_1958718504848">
   <rect class="fil0" x="-0" width="9519.76" height="5599.86" rx="859.49" ry="859.49"/>
   <path class="fil1 str0" d="M1498.38 936.3l0 89.35c-77.51,2.29 -128.68,11.83 -153.88,29.02 -24.82,17.18 -42.77,58.79 -54.22,125.23l-215.73 1307.35 332.18 0c98.51,0 169.54,-5.34 213.44,-15.65 43.91,-10.31 81.32,-27.88 111.87,-52.7 33.6,-29.02 62.23,-67.96 86.29,-117.22 23.67,-48.87 48.5,-123.32 73.69,-222.21l80.56 0c-14.89,71.39 -30.17,146.24 -45.44,224.51 -15.28,78.27 -32.84,170.67 -53.08,277.2l-1227.93 0 0 -93.93c62.61,0 105.76,-8.01 129.82,-24.43 23.67,-16.42 40.85,-55.75 51.55,-117.6l183.26 -1112.63c4.59,-24.44 7.64,-47.73 9.93,-69.49 2.29,-21.38 3.44,-38.95 3.44,-52.31 0,-28.64 -9.55,-48.5 -28.64,-60.71 -18.71,-11.83 -59.56,-19.85 -122.18,-24.43l0 -89.35c84.76,3.82 149.29,6.49 192.81,8.4 43.53,1.91 79.04,3.06 106.91,3.06 36.28,0 79.8,-1.15 130.2,-3.06 50.41,-1.91 115.31,-4.58 195.11,-8.4zm1350.89 1137.82l79.79 -344.4c-5.34,-61.85 -21.76,-109.2 -49.26,-142.8 -27.49,-33.6 -63.75,-50.41 -108.43,-50.41 -46.21,0 -92.02,19.86 -136.69,59.94 -44.68,39.72 -85.53,96.98 -121.81,171.45 -41.24,84.38 -73.68,171.82 -97.36,262.69 -24.05,90.87 -35.89,170.3 -35.89,238.26 0,66.05 10.31,115.69 30.93,148.53 20.24,32.83 51.55,49.25 93.16,49.25 23.29,0 49.64,-9.92 80.18,-30.16 30.17,-20.24 63.38,-50.79 100.03,-91.64 40.86,-46.2 76.75,-95.45 107.68,-147.76 30.93,-52.32 50.4,-93.16 57.66,-122.95zm156.16 -615.49l228.71 0 -192.05 803.34c-7.25,30.55 -12.98,57.28 -17.18,79.8 -4.2,22.91 -6.11,39.71 -6.11,51.17 0,22.14 6.49,40.09 19.47,53.46 12.99,13.36 29.79,20.23 49.64,20.23 29.79,0 59.94,-16.42 90.49,-49.25 30.55,-32.84 60.71,-81.33 90.49,-145.48l61.47 26.73c-40.86,97.36 -92.4,172.2 -154.64,224.51 -61.85,52.31 -129.06,78.65 -201.22,78.65 -60.32,0 -105.76,-14.89 -135.54,-45.06 -29.79,-29.78 -44.68,-74.83 -44.68,-135.55 0,-17.18 1.15,-37.42 3.44,-60.7 2.29,-23.29 5.72,-49.64 9.92,-79.8 -61.08,104.24 -128.29,183.65 -201.98,238.64 -73.3,54.99 -148.14,82.47 -224.12,82.47 -82.09,0 -145.86,-28.26 -190.91,-84.38 -45.06,-56.51 -67.58,-135.55 -67.58,-237.87 0,-94.69 16.42,-190.91 49.65,-289.04 33.22,-98.13 80.17,-188.24 140.51,-270.34 61.46,-83.23 128.67,-147.76 201.59,-193.19 73.31,-45.44 146.24,-68.34 219.55,-68.34 56.13,0 103.47,11.45 142.04,34.74 38.95,22.92 68.72,56.9 89.72,102.33l39.33 -137.07zm1360.8 36.27c-93.93,161.13 -234.82,335.24 -422.67,522.72 -187.85,187.08 -302.4,313.09 -344.4,378 29.78,-24.06 59.94,-42 90.11,-53.46 30.16,-11.84 61.85,-17.56 95.45,-17.56 42.77,0 111.49,12.98 206.94,38.94 95.46,25.97 166.86,38.95 214.58,38.95 37.43,0 64.91,-12.22 82.09,-37.04 17.57,-24.82 28.26,-66.05 32.08,-123.71l44.67 4.59c-0.76,130.96 -17.18,223.36 -49.25,277.2 -32.08,53.84 -85.53,80.56 -160.75,80.56 -48.5,0 -135.55,-17.95 -261.17,-53.84 -125.62,-35.89 -220.31,-53.84 -283.7,-53.84 -34.75,0 -64.14,6.87 -87.05,20.62 -23.29,14.13 -44.29,37.8 -63.76,71.4l-41.62 -39.34c87.43,-167.24 230.24,-353.94 429.54,-560.12 198.93,-206.18 322.64,-339.44 370.37,-400.15 -45.06,30.16 -86.67,51.93 -125.24,66.05 -38.95,14.13 -77.12,21.38 -115.31,21.38 -38.95,0 -89.72,-5.73 -152.73,-17.18 -62.99,-11.46 -105.76,-17.19 -129.05,-17.19 -30.55,0 -57.28,8.02 -80.56,24.06 -22.92,16.04 -53.46,52.32 -91.64,108.82l-45.82 -27.11c50.79,-99.66 101.18,-172.59 150.82,-219.17 50.02,-46.58 103.85,-69.86 161.13,-69.86 25.2,0 82.85,8.78 172.59,26.34 90.11,17.57 165.71,26.35 227.56,26.35 36.66,0 65.29,-3.82 86.29,-11.07 21,-7.26 37.8,-18.71 51.55,-33.99l38.95 28.64zm602.89 575.4c-21.77,70.64 -36.28,124.48 -43.91,160.37 -7.26,36.28 -11.08,67.96 -11.08,94.69 0,26.73 6.11,46.97 17.95,59.94 11.84,12.98 29.4,19.47 52.7,19.47 28.25,0 59.94,-13.74 94.68,-41.24 34.75,-27.87 75.22,-71.01 121.42,-129.82 38.95,-50.78 72.93,-104.61 102.33,-161.89 29.78,-56.9 48.11,-101.56 55.37,-133.64l103.09 -452.07 240.54 0 -185.55 852.6c-63.38,294.38 -140.9,494.84 -231.77,600.99 -91.25,106.14 -220.31,159.22 -387.17,159.22 -108.43,0 -196.63,-20.24 -265.36,-60.32 -68.73,-40.1 -103.09,-90.49 -103.09,-150.82 0,-27.5 9.54,-50.79 28.64,-69.49 19.09,-19.09 43.14,-28.64 72.16,-28.64 39.71,0 72.54,14.89 98.5,44.3 26.35,29.4 39.33,66.81 39.33,112.25 0,9.55 -0.38,17.57 -0.76,24.06 -0.38,6.11 -0.76,13.36 -1.53,21.76 17.95,9.55 36.66,16.8 56.52,21.77 19.85,4.96 41.24,7.25 64.14,7.25 105.38,0 187.09,-53.07 245.13,-158.84 58.42,-105.76 117.22,-329.12 177.16,-670.09 -74.84,120.66 -151.21,212.29 -229.1,274.53 -77.88,62.62 -155.4,93.93 -232.52,93.93 -57.28,0 -101.95,-16.42 -133.26,-49.26 -31.31,-32.46 -46.97,-78.65 -46.97,-138.22 0,-26.35 3.44,-56.9 9.93,-92.4 6.87,-35.13 20.24,-87.81 40.48,-157.69l101.18 -345.93c6.11,-22.53 10.69,-44.68 14.51,-66.43 3.82,-22.15 5.73,-40.1 5.73,-54.61 0,-23.67 -5.73,-41.62 -17.57,-53.46 -11.45,-11.83 -28.26,-17.94 -50.78,-17.94 -32.08,0 -65.67,17.56 -100.42,53.07 -34.75,35.52 -71.02,88.97 -109.2,160.75l-56.9 -28.25c49.64,-103.86 104.62,-180.6 164.57,-230.24 59.56,-49.64 126.38,-74.45 200.45,-74.45 69.11,0 121.8,14.89 157.32,44.68 35.51,30.16 53.07,73.68 53.07,131.34 0,20.24 -2.67,44.3 -8.02,72.16 -4.96,27.88 -12.98,59.94 -23.29,95.84l-78.65 260.78zm-3414.23 1768.37l-100.42 -702.93 -329.89 702.93 430.31 0zm335.62 372.28c0.76,6.11 2.29,15.27 4.58,27.87 21.38,133.64 87.82,203.13 198.92,209.24l0 89.34c-101.56,-4.58 -171.44,-7.64 -209.61,-9.16 -38.57,-1.53 -68.72,-2.3 -91.25,-2.3 -37.81,0 -83.24,0.77 -135.93,2.68 -52.32,1.91 -118.37,4.96 -197.4,8.78l0 -89.34c68.72,-3.82 113.02,-13.37 132.49,-28.64 19.86,-15.28 29.79,-44.3 29.79,-87.82 0,-11.07 -0.77,-24.05 -2.29,-38.57 -1.53,-14.51 -3.82,-30.54 -6.88,-48.49l-45.82 -314.23 -480.71 0 -158.84 333.32c-9.55,21.39 -17.19,42.39 -22.91,61.85 -5.73,19.86 -8.4,36.28 -8.4,50.02 0,26.73 9.54,45.06 28.64,55.37 19.09,9.93 58.79,15.66 119.5,17.19l0.77 89.34c-63.76,-4.58 -113.02,-7.64 -147,-9.16 -33.61,-1.53 -61.09,-2.3 -82.09,-2.3 -15.66,0 -37.42,0.77 -66.05,2.3 -28.26,1.52 -78.27,4.58 -149.68,9.16l1.15 -89.34c48.49,-1.53 88.58,-15.66 120.65,-43.15 32.08,-27.11 73.31,-93.55 124.09,-199.69l533.02 -1101.93c26.35,-29.03 51.17,-61.47 74.45,-96.6 23.67,-35.52 46.97,-75.98 69.87,-121.42l148.91 -22.53 218.02 1348.21zm990.07 -159.23l72.92 -320.72c-7.64,-56.51 -25.2,-100.04 -52.69,-130.58 -27.5,-30.55 -62.62,-45.83 -105,-45.83 -46.21,0 -91.26,19.1 -135.55,56.9 -43.91,38.18 -83.23,92.4 -118.37,163.04 -38.18,75.98 -68.34,155.79 -90.48,239.4 -22.53,83.24 -33.61,156.93 -33.61,221.07 0,58.8 11.08,104.62 33.61,137.08 22.14,32.46 53.84,48.49 95.07,48.49 28.25,0 56.51,-8.02 84.38,-24.05 27.87,-16.04 58.04,-41.24 90.1,-75.6 38.57,-41.62 72.55,-87.43 101.95,-137.84 29.78,-50.4 48.87,-94.31 57.66,-131.35zm196.63 198.93c-2.67,11.84 -4.96,24.06 -6.49,36.66 -1.53,12.98 -2.29,25.96 -2.29,39.33 0,30.55 6.11,53.84 18.33,69.87 12.6,16.03 30.55,24.05 54.22,24.05 30.55,0 61.09,-15.27 91.25,-45.82 30.17,-30.55 63,-79.41 98.89,-146.62l58.04 26.73c-49.64,105 -104.61,181.74 -164.56,230.24 -60.33,48.49 -129.82,72.92 -208.48,72.92 -56.89,0 -100.41,-16.04 -130.96,-48.11 -30.55,-32.46 -45.82,-77.89 -45.82,-137.08 0,-16.42 1.52,-35.13 4.96,-56.13 3.44,-21 9.17,-47.35 17.57,-79.8 -67.96,109.2 -137.08,190.14 -207.33,242.46 -69.87,52.31 -144.71,78.65 -223.74,78.65 -86.67,0 -154.26,-29.4 -203.13,-87.82 -48.88,-58.42 -73.3,-140.13 -73.3,-244.36 0,-89.73 15.65,-179.45 46.58,-269.57 30.93,-90.49 74.83,-173.73 131.35,-249.71 60.32,-80.56 127.15,-142.8 199.69,-186.7 72.92,-43.92 145.47,-66.06 217.63,-66.06 57.66,0 105,11.08 142.8,33.61 37.43,22.53 67.96,56.89 91.26,104.23l102.71 -455.51c6.11,-25.58 10.69,-49.64 13.74,-72.16 3.44,-22.91 5.35,-41.62 5.35,-56.51 -0.77,-53.08 -55.75,-80.94 -164.57,-84 -7.26,-0.76 -12.98,-1.14 -16.8,-1.14l13.75 -75.6c11.07,0 28.25,0.38 51.16,1.15 64.91,2.29 109.58,3.43 134.41,3.43 31.69,0 69.1,-1.14 111.49,-3.82 42.76,-2.29 95.45,-6.49 158.84,-12.21l-316.53 1415.4zm1501.69 -479.18c86.29,-128.3 165.71,-218.4 237.49,-271.1 71.78,-52.31 149.68,-78.65 233.29,-78.65 63.76,0 115.31,18.33 153.5,55.37 38.56,36.66 57.66,87.05 57.66,150.44 0,29.02 -4.2,62.23 -12.22,99.27 -8.4,37.42 -21.77,83.61 -40.1,138.6l-130.58 387.55c-10.31,31.31 -17.57,55.75 -21.77,73.31 -4.2,17.56 -6.11,33.22 -6.11,46.58 0,21 6.5,37.42 19.1,50.02 12.6,12.22 29.4,18.33 50.02,18.33 32.07,0 65.29,-17.94 99.27,-53.46 34.37,-35.51 70.63,-88.58 108.44,-159.6l56.89 26.73c-49.64,104.24 -104.23,180.6 -163.04,229.47 -58.79,49.26 -125.62,73.69 -200.07,73.69 -68.72,0 -122.18,-16.42 -160.37,-48.88 -38.56,-32.45 -57.66,-77.88 -57.66,-136.31 0,-21.76 2.29,-44.29 6.88,-67.96 4.2,-23.29 10.69,-47.35 18.71,-71.01l146.24 -429.93c14.13,-41.62 24.82,-77.5 32.45,-108.05 7.26,-30.55 11.08,-53.84 11.08,-70.25 0,-28.26 -6.11,-48.88 -18.33,-62.23 -12.22,-13.37 -31.69,-20.24 -57.66,-20.24 -65.67,0 -143.18,56.13 -233.67,168.77 -90.11,112.25 -150.06,235.2 -179.84,368.45l-101.56 457.04 -244.75 0 180.98 -781.58c6.88,-30.55 11.84,-57.28 15.28,-80.18 3.43,-22.91 4.96,-42 4.96,-56.9 0,-22.91 -5.35,-41.24 -15.66,-54.98 -10.31,-13.75 -25.2,-20.62 -43.53,-20.62 -60.7,0 -135.16,56.51 -223.36,169.91 -88.58,113.02 -147,235.58 -175.26,367.31l-101.18 457.04 -245.13 0 177.92 -801.82c5.35,-25.96 9.17,-49.26 12.22,-69.49 3.06,-20.62 4.59,-36.27 4.59,-47.35 0,-26.34 -5.35,-46.96 -16.04,-62.99 -11.08,-16.04 -24.44,-24.06 -40.86,-24.06 -37.42,0 -74.45,16.04 -111.11,47.73 -37.04,32.08 -77.89,83.62 -122.56,155.03l-52.7 -36.66c53.84,-92.4 112.64,-161.52 176.4,-207.33 63.76,-45.82 133.63,-68.72 208.85,-68.72 59.18,0 104.23,14.51 135.55,43.15 31.31,28.64 46.96,70.25 46.96,125.62 0,17.94 -2.29,42.38 -7.25,73.3 -4.97,30.55 -12.98,71.02 -24.06,121.04 83.24,-126.76 162.28,-218.78 236.35,-276.44 74.07,-57.66 150.06,-86.67 227.56,-86.67 56.9,0 100.42,14.51 130.97,43.15 30.55,28.64 45.82,69.1 45.82,121.04 0,20.23 -2.29,45.05 -6.87,74.45 -4.2,29.4 -11.84,66.43 -22.15,111.11zm1298.19 507.05c0,0.77 -0.38,2.68 -1.15,5.73 -8.02,32.08 -12.22,56.13 -12.22,71.78 0,27.49 6.11,48.88 18.33,63.38 12.6,14.51 29.79,21.76 52.32,21.76 32.07,0 64.9,-17.56 98.5,-52.31 33.61,-34.75 69.87,-88.2 108.44,-160.75l57.28 26.73c-51.55,104.24 -106.91,180.6 -165.72,229.47 -59.17,49.26 -125.62,73.69 -199.3,73.69 -67.96,0 -120.66,-16.42 -158.46,-49.26 -37.8,-33.22 -56.52,-79.41 -56.52,-139.36 0,-16.42 1.91,-35.52 6.11,-57.28 4.2,-21.39 10.31,-47.35 18.71,-77.13l156.55 -536.07c3.82,-13.74 6.88,-27.49 9.55,-42 2.67,-14.51 3.82,-27.88 3.82,-39.71 0,-24.06 -5.35,-42.39 -16.04,-54.99 -11.07,-12.6 -25.96,-19.09 -45.44,-19.09 -28.26,0 -58.04,16.42 -89.34,48.88 -31.7,32.45 -66.82,82.47 -106.53,150.43l-59.18 -31.31c48.5,-95.83 105,-167.62 169.92,-215.34 64.9,-47.73 137.45,-71.78 217.25,-71.78 53.84,0 96.98,14.51 129.82,43.91 32.84,29.02 49.26,67.96 49.26,116.46 0,20.24 -2.29,42.77 -6.87,68.34 -4.2,25.58 -11.08,53.84 -19.86,85.14l-159.22 540.65zm101.18 -1331.02c37.8,0 69.49,11.07 94.69,33.6 25.58,22.53 38.18,50.79 38.18,85.15 0,46.96 -15.27,87.43 -45.82,121.41 -30.55,33.99 -66.43,50.79 -107.29,50.79 -36.66,0 -66.81,-12.22 -90.49,-36.28 -24.05,-24.43 -35.89,-54.22 -35.89,-90.1 0,-46.97 14.13,-86.29 42,-117.6 27.88,-31.31 62.61,-46.97 104.62,-46.97zm1438.32 917.89l-130.97 387.55c-10.69,31.31 -17.94,55.75 -21.38,73.31 -3.82,17.56 -5.73,33.22 -5.73,46.58 0,21 6.11,37.42 18.33,50.02 12.6,12.22 29.02,18.33 50.02,18.33 32.08,0 65.67,-17.94 100.42,-53.46 34.75,-35.51 71.01,-88.58 109.2,-159.6l56.9 26.73c-50.03,104.24 -104.62,180.6 -163.81,229.47 -59.56,49.26 -126.38,73.69 -201.21,73.69 -68.73,0 -122.19,-16.42 -159.99,-48.88 -38.19,-32.45 -57.28,-77.88 -57.28,-136.31 0,-21.76 1.91,-44.29 6.11,-67.96 4.2,-23.29 10.31,-46.97 18.71,-69.87l148.91 -431.07c13.75,-37.04 24.06,-71.39 30.93,-103.09 7.26,-31.69 10.7,-56.51 10.7,-75.21 0,-28.26 -6.11,-48.88 -18.33,-62.23 -12.6,-13.37 -31.31,-20.24 -56.52,-20.24 -66.43,0 -144.71,56.13 -234.82,168 -90.48,112.26 -150.44,235.2 -180.21,369.22l-101.18 457.04 -245.13 0 177.92 -801.82c5.35,-25.96 9.17,-49.26 12.22,-69.49 3.06,-20.62 4.59,-36.27 4.59,-47.35 0,-26.34 -5.35,-46.96 -16.04,-62.99 -11.08,-16.04 -24.44,-24.06 -40.86,-24.06 -37.42,0 -74.45,16.04 -111.11,47.73 -37.04,32.08 -77.89,83.62 -122.56,155.03l-52.7 -36.66c53.84,-92.4 112.64,-161.52 176.4,-207.33 63.76,-45.82 133.63,-68.72 208.85,-68.72 59.18,0 104.23,14.51 135.55,43.15 31.31,28.64 46.96,70.25 46.96,125.62 0,17.94 -2.29,42.38 -7.25,73.3 -4.97,30.55 -12.98,71.02 -24.06,121.04 88.58,-133.26 169.53,-227.18 242.46,-281.4 73.3,-54.61 152.73,-81.71 238.25,-81.71 64.14,0 115.69,18.71 154.64,55.75 38.57,37.42 58.04,87.43 58.04,150.06 0,27.49 -3.81,58.42 -11.07,93.16 -7.64,34.75 -22.15,82.85 -43.91,144.71zm980.51 -305.45c-22.53,-24.06 -48.49,-41.62 -78.27,-52.7 -29.78,-11.07 -64.9,-16.8 -105,-16.8 -58.42,0 -105.76,15.66 -142.04,46.59 -36.65,30.93 -54.98,71.01 -54.98,121.04 0,71.01 59.56,138.22 178.3,201.59 13.37,6.49 23.3,11.84 30.17,15.66 106.53,58.04 176.78,109.96 211.52,156.17 34.75,45.82 51.94,103.09 51.94,171.82 0,105.76 -37.81,191.29 -113.4,256.58 -75.6,65.29 -175.26,98.13 -298.96,98.13 -109.58,0 -199.31,-25.58 -268.81,-76.36 -69.87,-50.79 -104.61,-115.31 -104.61,-193.58 0,-40.48 10.31,-73.69 31.31,-100.42 20.62,-26.34 46.97,-39.71 79.03,-39.71 26.73,0 49.26,9.17 66.81,27.49 17.95,18.33 27.12,41.24 27.12,68.73 0,25.96 -7.26,53.84 -21.01,83.23 -13.74,29.4 -20.62,46.97 -20.62,51.93 0,24.82 20.24,48.12 61.09,70.25 40.86,21.77 88.2,32.84 142.8,32.84 64.91,0 116.08,-16.42 153.12,-49.26 37.04,-32.83 55.36,-78.27 55.36,-136.31 0,-72.54 -58.04,-139.36 -173.73,-200.45 -14.13,-7.25 -25.58,-13.36 -33.6,-17.95 -95.45,-51.16 -161.13,-100.41 -197.02,-147.38 -35.89,-46.97 -53.84,-103.47 -53.84,-169.91 0,-102.71 35.13,-185.95 105.77,-250.1 70.63,-64.14 164.56,-96.21 281.78,-96.21 102.71,0 188.23,22.91 255.82,69.1 67.58,46.21 101.18,103.47 101.18,172.21 0,35.51 -8.78,64.52 -26.73,85.9 -17.94,21.77 -42,32.46 -71.77,32.46 -28.64,0 -52.32,-9.93 -71.78,-29.78 -19.48,-19.48 -29.41,-43.92 -29.41,-73.31 0,-14.89 2.68,-31.31 8.02,-49.64 4.97,-18.33 13.37,-38.95 24.44,-61.85z"/>
   <g>
    <path class="fil2" d="M6319.78 2420.44c-1.75,30.41 -12.98,50.93 -26.74,76.97l-24.33 49.58c-8.82,20.52 -17.41,21.7 18.28,47.21 89.96,64.29 84.82,98.86 151.7,34l7.58 -7.4c31.6,-29.02 62.42,-68.51 94.03,-94.79 21.32,-17.72 55.56,-50.58 75.1,-73.51 7.14,-8.38 9.45,-14.03 16.09,-20.68l10.03 -8.37c32.28,-27.85 106.86,-104.78 135.46,-142.55 7.41,-9.77 10.74,-12.27 17.64,-19.72 12.29,-13.29 20.17,-27.45 32.53,-41.64 55.27,-63.48 103.26,-133.31 159.38,-196.58l7.25 -7.43c1.52,-1.81 4.92,-7.2 7.46,-10.82 0.46,-0.65 1.1,-1.55 1.57,-2.2 25.53,-35.24 22.25,-37.32 54.31,-71.95l8.4 -13.1c16.4,-28.41 61.18,-82.37 84.54,-116.31 10.73,-15.6 22.55,-23.96 33.07,-40.72 10.27,-16.34 19.74,-27.91 30.68,-43.81l92.93 -129.96c12.27,-15.08 17.04,-12.72 33.47,-40.51 26.38,-44.64 66.76,-82.54 96.65,-125.4 34.08,-48.88 42.93,-41.32 2.15,-74.82 -43.34,-35.62 -86.03,-67.7 -133.14,-97.17l-63.95 -50.66c-13.36,-9.7 -22.75,-18.64 -41.32,-21.18 -3.48,4.92 -3.71,4.15 -6.86,8.33l-109.07 139.02c-27.13,31.58 -49.26,66.7 -75.99,98.01l-11.82 13.68c-1.24,1.96 -2.66,5.28 -5.3,9.64 -39.32,65.1 -96.14,118 -135.81,183.09 -10.87,17.84 -17.38,17.02 -29.08,37.43 -11.19,19.53 -30.14,37.94 -44.22,56.24l-97.06 132.68c-31.47,47.25 -66.55,88.94 -98.13,135.6 -6.22,9.19 -6.14,10.07 -13.59,19.85 -18.91,24.83 -25.49,43.07 -42.37,65.14 -0.49,0.63 -1.23,1.44 -1.72,2.05 -14.41,17.97 -26.99,47.6 -41.84,65.61 -0.49,0.6 -1.19,1.45 -1.69,2.04l-42.84 67.34c-11.04,26.15 -23.45,42.02 -35.99,64.67l-57.47 102.31c-0.47,0.69 -1.07,1.62 -1.55,2.29 -16.86,23.16 -8.05,34.08 -28.43,38.49z"/>
    <path class="fil2" d="M7691.02 392.81l14.41 -11.69c12.14,-10.54 14.76,-17.56 23.35,-29.06 15.7,-21.02 24.58,-26.61 24.53,-62.12 -20.34,-10.16 -8.75,-14.19 -28.4,-17.35 -26.77,-1.26 -23.72,12.24 -34.77,26.38l-58.79 78.43c-6.8,8.92 -5.66,4.38 -16.02,12.58 -13.33,10.57 -198.24,256.12 -219.31,292.92l-195.58 260.51c-4.28,5.6 -9.09,12.04 -12.41,17.62 -27.72,46.6 -68.81,83.86 -94.63,132.06 -7.76,14.49 -4.96,6.83 -12.08,16.97l-24.73 30.52c-0.72,0.79 -2.89,2.96 -3.62,3.77l-73.06 93.85c-22.14,29.09 -38.52,42.96 -3.77,73.41 39.49,3.64 34.84,-7.72 52.81,-28.35 25.29,-29.04 46.43,-63.89 70.52,-92.47l34.32 -47.33c15.44,-17.46 22.73,-25.75 35.54,-46.01 6.05,-9.57 10.81,-14.8 17.3,-23.47l16.14 -24.99c0.09,-0.13 5.42,-7.07 7.93,-10.26 0.48,-0.6 1.13,-1.5 1.61,-2.1l65.55 -78.71c13.18,-16.89 20.76,-33.98 32.93,-48.99l104.69 -139.97c16.45,-23.57 20.43,-15.45 36.94,-43.85l39.58 -50.12c0.57,-0.58 1.4,-1.32 1.97,-1.89l19.59 -24.09c10.15,-14.33 20.84,-22.38 27.39,-38.46l16.63 -29.16c20.62,-1.6 53.37,-4.17 68.65,4.15 1.35,17.62 -3.36,22.26 -13.3,32.57l-3.84 3.62c-0.51,0.53 -1.35,1.24 -1.85,1.78l-8.92 12.93c-10.95,16.66 -20.03,33.13 -34.97,47.26l-3.97 3.3c-15.66,15.45 4.73,-12.47 -6.01,7.71l-38.42 55.3c-14.22,15.86 -23.22,39.13 -37.9,55.03l-119.22 158.6c-6.95,9.71 -11.23,16.23 -18.73,25.7 -10.49,13.27 -13.19,16.16 -16.38,35.57 14.99,8.92 31.59,25.58 65.67,46.26l22.85 17.28c3.23,2.83 5.08,4.38 8.02,6.83 3.44,2.88 4.04,3.79 8.48,6.57l120.62 90.61c12.52,8.93 21.61,25.14 39.41,20.52 11.36,-2.94 9.39,-10.66 17.32,-20.92l103.48 -141.88c9.48,-16.59 7.39,-3.82 20.24,-19.67 6.75,-8.32 9.53,-19.18 14.89,-26.06 20.14,-25.81 43.51,-52.5 60.54,-80.68l26.9 -35.55c34.5,-37.51 66.11,-89.38 87.98,-111.78 10.63,-10.89 4.13,-11.58 16.32,-24.76l157.37 -210.47c24.63,-40.23 34,-45.95 34.01,-96.5 -0.01,-28.04 -8.53,-57.56 -19.69,-78.54 -8.13,-15.32 -36.71,-36.24 -51.35,-48.56 -65.05,-54.8 -129.92,-65.19 -203.74,-5.46 -14.68,11.88 -12.23,13.62 -21.12,27.84l-43.08 56.8c-16.91,25.85 -43.61,20.75 -71.4,17.3 -21.33,-2.64 -25.93,1.49 -25.41,-21.27z"/>
    <path class="fil2" d="M6194.46 2809.66c0.43,18.7 1.66,24.25 -18.91,25.34 -39.78,2.1 -23.76,-39.83 -3.56,-40.64 11.96,-0.48 17.39,9.57 22.47,15.3zm170.92 -122.33c-6.37,-13.76 -25.91,-26.6 -39.08,-35.35l-61 -46.35c-11.94,-6.52 -20.76,-5.89 -29.36,4.79 -14.5,18.01 -18.48,41.5 -40.37,53.73 -48.89,27.33 -50.54,36.75 -83.64,74.71l-22.11 43.4c-2.46,6.6 -4.3,21.83 -5.65,30.51l-13.45 60.89c-5.24,21.88 -21.15,59.02 -35.08,78.1 -11.31,15.51 -10.96,5.91 -8.13,31.93 23.25,11.21 13.88,2.1 30.85,24.28 106.13,3.47 232.4,7 334.84,-4.81 18.93,-2.18 35.04,-8.55 56.46,-9.89 77.02,-4.83 208.92,-33.61 290.15,-47.42 22.4,-3.8 31.47,-12.47 51.33,-15.3 10.65,-1.51 21.76,-0.47 29.12,-3.84 12.48,-5.71 0.83,-6.7 24.39,-12.52 25.32,-6.24 25.74,-11.03 53.42,-14.7 21.31,-2.84 4.01,0.41 20.21,-10.7 11.88,-8.15 49.69,-19.27 71.32,-32.36l86.78 -46.76c10.74,-6.16 16.58,-4.4 25.03,-9.05 0.65,-0.36 1.5,-1.02 2.12,-1.41 0.62,-0.39 1.44,-1.12 2.05,-1.54 0.88,-0.61 3.33,-2.58 4.2,-3.22l41.25 -28.9c53.29,-39.53 53.6,-33.59 120.21,-98.23 11.81,-11.47 21.56,-21.62 33.42,-33.34l53.61 -50.14c7.11,-6.1 10.6,-9.17 18.36,-15.27l35.48 -30.55c44.64,-44.44 102.81,-60.02 161.46,-75.2 15.15,-3.92 11.54,-6.33 23.51,-9.25 52.5,-12.8 149.22,-6.36 205.76,-2.26 35.95,2.62 37.88,4.68 65.99,14.15 67.53,22.73 123.16,25.06 176.59,87.05 23.95,27.8 73.22,33.1 69.45,146.03 -2.1,62.67 -46,112.21 -83.02,154.7 -13.14,15.08 -27.6,20.64 -42.99,38.54 -8.16,9.49 -32.6,28.49 -43.31,34.48 -13.35,7.46 -13.21,4.97 -26.28,14.66 -57.59,42.72 -101.02,51.45 -107.86,55.79 -8.36,5.3 -12.25,9.49 -24,16.23l-99.29 60.1c-0.65,0.48 -1.45,1.22 -2.07,1.7 -27.22,21.16 -60.08,44.13 -83.16,72.76 -56.44,70.07 -1.61,127.08 55.71,136.83 27.26,4.63 40.56,10.54 68.09,13.67 60.95,6.91 165.89,6.83 224.76,-9.67 22.94,-6.43 47.81,-2.44 69.8,-11.79 36.63,-15.56 92.69,-15.6 129.51,-30.05 19.72,-7.73 42.47,-13.98 61.06,-20.3 15.41,-5.23 54.61,-19.95 33.24,-42.17 -13.47,-14.01 -58.11,7.96 -74.98,10.91 -16.54,2.88 -53.91,15.19 -71.83,21.24 -47.3,15.96 -104.98,23.09 -155.37,33.23 -55.84,11.22 -204.54,15.96 -266.85,1.06 -52.68,-12.6 -73.94,-51.02 -32.67,-88.8 28.53,-26.13 61.29,-59.08 96.1,-77.25 6.71,-3.51 20.36,-7.96 26.9,-11.14 42.9,-20.82 148.75,-81.89 183.95,-96.97 25.42,-10.88 62.82,-37.68 87.27,-53.95 27.06,-18.01 55.05,-40.92 76.45,-64.77 11.85,-13.21 22.99,-23.11 34.18,-36.13 21.24,-24.7 41.27,-54.09 51.32,-88.78 24.7,-85.26 -6.69,-196.16 -58.44,-253.92 -33.24,-37.11 -103.44,-96.61 -153.15,-104.47 -29.55,-4.66 -47.29,-19.59 -75.37,-27.5 -12.92,-3.63 -28.44,-3.23 -41.78,-6.72 -51.41,-13.44 -85.01,-14.81 -142.18,-14.52l-3.71 0.02c-70.9,0.37 -103.55,1.28 -160.13,19.24 -82.56,26.21 -161.27,75.92 -218.55,138.11l-65.2 68.39c-19.74,24.27 -47,46.25 -68.69,68.22 -15.26,15.46 -29.65,27.67 -45.85,43.1 -46.32,44.14 -97.34,82.06 -149.45,117.57 -9.11,6.21 -22.27,10.53 -28.6,15.97 -23.06,19.84 -25.83,19.44 -54.53,34.11 -10.84,5.54 -17.77,10.3 -28.83,15.27 -62.91,28.28 -138.74,46.13 -203.23,67.9 -34.7,11.73 -178.68,42.96 -222.5,44.61 -22.99,0.87 -58.12,4.96 -78.79,9.95 -27.37,6.62 -204.5,18.32 -251.04,18.83 -53.06,0.57 -81.34,8.83 -14.37,-58.06l25.96 -17.46c16.29,-7.78 4.21,-3.12 13.4,-9.52 15.44,-10.75 42.31,-6.8 63.7,-29.74 20.65,-22.15 47.81,-41.59 61.06,-71.95 12.32,-28.22 5.25,-59.04 37.39,-82.17l23.71 -23.53c4.5,-5.45 2.68,-0.37 5.01,-7.09z"/>
    <path class="fil2" d="M7243.89 1130.46c0.83,0.78 2.17,0.69 2.61,2.23 0.41,1.48 1.9,1.66 2.46,2.18 0.53,0.49 1.66,1.52 2.29,2.11 2.59,2.43 5.71,5.72 7.76,7.53l21.74 18.26c3.55,3.88 4.39,4.79 7.44,7.93 5.47,5.63 8.67,9.56 15.08,14.63 30.25,23.94 74.54,50.92 96.69,69.93l63.49 47.53c14.19,13.31 14.73,18.11 35.34,24.68 16.93,-6.82 38.71,-39.97 43.13,-59.84l-7.96 -9.28c-2.87,-2.99 -5.78,-5.5 -9.73,-8.97 -39.37,-34.5 -68.86,-50.08 -104.85,-80.25l-56.26 -39.77c-15.62,-17.49 -13.53,-14.73 -32.94,-27.17 -31.73,-20.35 -40.3,-47.27 -62.07,-20.85 -11.24,13.63 -20.5,28.7 -24.22,49.13z"/>
   </g>
  </g>
 </g>
</svg>
